<?xml version="1.0" encoding="UTF-8"?>
<svg xmlns="http://www.w3.org/2000/svg" viewBox="0 0 1024 1024" width="1024" height="1024">
  <defs>
    <linearGradient id="bgGradient" x1="0%" y1="0%" x2="100%" y2="100%">
      <stop offset="0%" style="stop-color:#1E40AF;stop-opacity:1" />
      <stop offset="50%" style="stop-color:#3B82F6;stop-opacity:1" />
      <stop offset="100%" style="stop-color:#60A5FA;stop-opacity:1" />
    </linearGradient>
  </defs>

  <!-- Background with rounded corners -->
  <rect width="1024" height="1024" fill="url(#bgGradient)" rx="180"/>

  <!-- LA FANTANA Logo - Scaled and White -->
  <g transform="translate(512, 512) scale(8.5)" fill="#FFFFFF">
    <g transform="translate(-100, -16.5)">
      <!-- L -->
      <path d="M18.27,21.13h-5.47c-1.94,0-3.37-.17-4.29-.5-2.92-1.04-4.38-3.69-4.38-7.93V.29h4.34v12.26c0,1.34.05,2.2.15,2.57.43,1.7,1.95,2.55,4.56,2.55h5.1v3.45h-.01Z"/>

      <!-- A -->
      <path d="M33.37,12.47l-3.14-8.01-2.99,8.01h6.13ZM41.5,21.13h-4.82l-1.89-4.93h-8.97l-1.84,4.93h-4.59L28.09.29h4.62s8.79,20.84,8.79,20.84Z"/>

      <!-- F -->
      <path d="M69.02,12.59h-12.4v8.53h-4.32v-9.56c0-2.69.16-4.65.47-5.89.91-3.59,4.13-5.39,9.66-5.39h6.59v3.65h-6.96c-3.63,0-5.45,1.68-5.45,5.05h12.4v3.6h.01Z"/>

      <!-- A -->
      <path d="M83.1,12.47l-3.13-8.01-2.99,8.01h6.13-.01ZM91.24,21.13h-4.83l-1.89-4.93h-8.97l-1.84,4.93h-4.59L77.83.29h4.62s8.79,20.84,8.79,20.84Z"/>

      <!-- N -->
      <polygon points="110.82 21.13 105.78 21.13 96.9 5.38 97.11 21.13 92.67 21.13 92.67 .29 98.14 .29 106.58 15.27 106.37 .29 110.82 .29 110.82 21.13"/>

      <!-- T -->
      <polygon points="130.68 3.96 123.96 3.96 123.96 21.13 119.49 21.13 119.49 3.96 112.83 3.96 112.83 .31 130.68 .31 130.68 3.96"/>

      <!-- A -->
      <path d="M143.95,12.47l-3.14-8.01-2.99,8.01h6.13ZM152.09,21.13h-4.83l-1.89-4.93h-8.97l-1.84,4.93h-4.58L138.69.29h4.61s8.79,20.84,8.79,20.84Z"/>

      <!-- N -->
      <polygon points="171.67 21.13 166.63 21.13 157.75 5.38 157.95 21.13 153.52 21.13 153.52 .29 158.99 .29 167.42 15.27 167.22 .29 171.67 .29 171.67 21.13"/>

      <!-- A -->
      <path d="M187.01,12.47l-3.13-8.01-2.99,8.01h6.12ZM195.15,21.13h-4.82l-1.89-4.93h-8.97l-1.84,4.93h-4.59L181.74.29h4.62s8.79,20.84,8.79,20.84Z"/>
    </g>
  </g>

  <!-- WHS Subtitle - Below logo -->
  <text x="512" y="720" font-family="Arial, sans-serif" font-size="100" font-weight="bold" fill="#FFFFFF" fill-opacity="0.95" text-anchor="middle" letter-spacing="8">WHS</text>

  <!-- Small tagline -->
  <text x="512" y="800" font-family="Arial, sans-serif" font-size="42" font-weight="600" fill="#FFFFFF" fill-opacity="0.8" text-anchor="middle" letter-spacing="2">SERVISNI MODUL</text>
</svg>
